<?xml version="1.0" encoding="UTF-8" standalone="no"?>
<svg
   width="128"
   height="128"
   viewBox="0 0 128 128"
   fill="none"
   version="1.1"
   id="svg15"
   sodipodi:docname="logo.svg"
   inkscape:version="1.3.2 (091e20e, 2023-11-25, custom)"
   xmlns:inkscape="http://www.inkscape.org/namespaces/inkscape"
   xmlns:sodipodi="http://sodipodi.sourceforge.net/DTD/sodipodi-0.dtd"
   xmlns="http://www.w3.org/2000/svg"
   xmlns:svg="http://www.w3.org/2000/svg">
  <sodipodi:namedview
     id="namedview15"
     pagecolor="#ffffff"
     bordercolor="#000000"
     borderopacity="0.25"
     inkscape:showpageshadow="2"
     inkscape:pageopacity="0.0"
     inkscape:pagecheckerboard="0"
     inkscape:deskcolor="#d1d1d1"
     inkscape:zoom="11.313709"
     inkscape:cx="38.890873"
     inkscape:cy="59.352775"
     inkscape:window-width="3840"
     inkscape:window-height="2054"
     inkscape:window-x="-11"
     inkscape:window-y="-11"
     inkscape:window-maximized="1"
     inkscape:current-layer="svg15" />
  <path
     d="M67.0788 31.5813C67.0788 21.8864 59.1923 14 49.4975 14C39.2803 14 33.1721 21.6604 33.1721 29.0696H43.2185C43.2185 26.985 45.1675 24.0464 49.4975 24.0464C53.6517 24.0464 57.0323 27.4271 57.0323 31.5813C57.0323 35.7355 54 39.1161 46.3533 39.1161H19V49.1625H46.3533C59.259 49.1625 67.0788 41.2761 67.0788 31.5813ZM67.0788 31.5813C67.0788 21.8864 59.1923 14 49.4975 14C39.2803 14 33.1721 21.6604 33.1721 29.0696H43.2185C43.2185 26.985 45.1675 24.0464 49.4975 24.0464C53.6517 24.0464 57.0323 27.4271 57.0323 31.5813C57.0323 35.7355 54 39.1161 46.3533 39.1161H19V49.1625H46.3533C59.259 49.1625 67.0788 41.2761 67.0788 31.5813Z"
     fill="url(#paint0_linear)"
     id="path1"
     style="fill:#daf3f9;fill-opacity:1" />
  <path
     d="M92 29.5C80.9188 29.5 73.102 37.9269 73.102 49.0081H82C82 43.5 86 39.5 92 39.5C98 39.5 101 43.5 101 49.0081C101 54.5162 97.1036 59.0545 86.5 59.0545H19V69.101H88C103.703 69.101 111 59.0081 111 49.0081C111 37.9269 103.5 29.5 92 29.5Z"
     fill="url(#paint2_linear)"
     id="path3"
     style="fill:#daf3f9;fill-opacity:1" />
  <path
     d="m 19,78.837891 v 10.046875 h 19.287109 1.21875 29.134766 c 6.858779,0 10.679687,3.379015 10.679687,7.533203 10e-7,4.154291 -3.380968,7.535151 -7.535156,7.535161 -4.329987,0 -6.279297,-2.93885 -6.279297,-5.023443 H 55.458984 c 0,7.409583 6.109003,15.070313 16.326172,15.070313 9.694771,0 17.582031,-7.88676 17.582031,-17.582031 0,-9.694771 -7.820901,-17.580078 -20.726562,-17.580078 h -29.134766 -1.21875 z"
     style="fill:#daf3f9;stroke-width:1.2426;fill-opacity:1"
     id="path15" />
  <defs
     id="defs15">
    <linearGradient
       id="paint0_linear"
       x1="27"
       y1="22.5"
       x2="85"
       y2="114"
       gradientUnits="userSpaceOnUse">
      <stop
         offset="0.078225"
         stop-color="#54C8F1"
         id="stop4" />
      <stop
         offset="0.572917"
         stop-color="#41A2EF"
         id="stop5" />
      <stop
         offset="1"
         stop-color="#3386EE"
         id="stop6" />
    </linearGradient>
    <linearGradient
       id="paint1_linear"
       x1="27"
       y1="22.5"
       x2="85"
       y2="114"
       gradientUnits="userSpaceOnUse">
      <stop
         offset="0.078225"
         stop-color="#54C8F1"
         id="stop7" />
      <stop
         offset="0.572917"
         stop-color="#41A2EF"
         id="stop8" />
      <stop
         offset="1"
         stop-color="#3386EE"
         id="stop9" />
    </linearGradient>
    <linearGradient
       id="paint2_linear"
       x1="27"
       y1="22.5"
       x2="85"
       y2="114"
       gradientUnits="userSpaceOnUse">
      <stop
         offset="0.078225"
         stop-color="#54C8F1"
         id="stop10" />
      <stop
         offset="0.572917"
         stop-color="#41A2EF"
         id="stop11" />
      <stop
         offset="1"
         stop-color="#3386EE"
         id="stop12" />
    </linearGradient>
    <linearGradient
       id="paint3_linear"
       x1="27"
       y1="22.5"
       x2="85"
       y2="114"
       gradientUnits="userSpaceOnUse"
       gradientTransform="matrix(1.557037,0,0,0.99166897,-10.583703,0.65679759)">
      <stop
         offset="0.078225"
         stop-color="#54C8F1"
         id="stop13" />
      <stop
         offset="0.572917"
         stop-color="#41A2EF"
         id="stop14" />
      <stop
         offset="1"
         stop-color="#3386EE"
         id="stop15" />
    </linearGradient>
  </defs>
</svg>
